Coordinates
version=1
nRows=24
nColumns=38
inDegrees=no

Units are S.I. units (second, meters, Newtons, ...)
If the header above contains a line with 'inDegrees', this indicates whether rotational values are in degrees (yes) or radians (no).

endheader
time	pelvis_tilt	pelvis_list	pelvis_rotation	pelvis_tx	pelvis_ty	pelvis_tz	hip_flexion_r	hip_adduction_r	hip_rotation_r	knee_angle_r	ankle_angle_r	subtalar_angle_r	mtp_angle_r	hip_flexion_l	hip_adduction_l	hip_rotation_l	knee_angle_l	ankle_angle_l	subtalar_angle_l	mtp_angle_l	lumbar_extension	lumbar_bending	lumbar_rotation	arm_flex_r	arm_add_r	arm_rot_r	elbow_flex_r	pro_sup_r	wrist_flex_r	wrist_dev_r	arm_flex_l	arm_add_l	arm_rot_l	elbow_flex_l	pro_sup_l	wrist_flex_l	wrist_dev_l
55	0.262077	1.35683	1.36299	0.642795	-0.185321	0.734609	1.0967	-0.0254091	-0.0414092	1.44329	-0.0623936	0	0	1.09242	-0.307426	-0.263474	1.53747	-0.0916875	0	0	-0.67333	0.115014	-0.126235	0.557727	-0.222035	0.505657	0.343933	1.27161	0	0	0.207981	-0.392062	0.107233	0.706255	1.26379	0	0
55.01	0.265428	1.35878	1.35971	0.642714	-0.185467	0.733917	1.09646	-0.0254079	-0.0412277	1.4453	-0.0612651	0	0	1.0923	-0.307778	-0.262904	1.54052	-0.0902322	0	0	-0.677866	0.115072	-0.126044	0.557445	-0.221757	0.502506	0.344453	1.28188	0	0	0.209684	-0.391647	0.107645	0.703751	1.25179	0	0
55.02	0.266454	1.35998	1.35905	0.642538	-0.185593	0.733243	1.09718	-0.0260957	-0.0408232	1.44774	-0.0605681	0	0	1.09284	-0.307298	-0.262405	1.54332	-0.0889774	0	0	-0.681224	0.115165	-0.126345	0.557183	-0.221465	0.501063	0.344548	1.29365	0	0	0.211474	-0.391249	0.108966	0.7013	1.23938	0	0
55.03	0.269695	1.36128	1.35611	0.642521	-0.185583	0.732712	1.0969	-0.0257513	-0.0408478	1.44981	-0.0597108	0	0	1.0929	-0.307285	-0.261308	1.54573	-0.087814	0	0	-0.684419	0.115354	-0.126543	0.55701	-0.220885	0.499728	0.344714	1.3057	0	0	0.213106	-0.391152	0.11077	0.698427	1.22726	0	0
55.04	0.272668	1.36287	1.35365	0.642505	-0.185472	0.732338	1.09633	-0.026007	-0.0410151	1.45224	-0.0589916	0	0	1.09217	-0.307067	-0.260583	1.54753	-0.0866123	0	0	-0.687312	0.115526	-0.127501	0.557126	-0.220067	0.497647	0.345323	1.31736	0	0	0.214587	-0.391282	0.113117	0.694529	1.21675	0	0
55.05	0.274256	1.36434	1.35256	0.642419	-0.185298	0.732109	1.09545	-0.0265977	-0.0410749	1.45406	-0.0583595	0	0	1.09113	-0.306475	-0.260207	1.54871	-0.0854828	0	0	-0.68955	0.11557	-0.128914	0.557513	-0.21916	0.495315	0.345904	1.32887	0	0	0.21631	-0.391601	0.11679	0.689547	1.21003	0	0
55.06	0.27458	1.36572	1.35263	0.642283	-0.185097	0.732041	1.09409	-0.0272551	-0.0410615	1.45498	-0.0563375	0	0	1.08965	-0.305729	-0.260347	1.54917	-0.0831874	0	0	-0.690401	0.115938	-0.130074	0.558745	-0.217369	0.493968	0.342571	1.34916	0	0	0.220176	-0.392653	0.127177	0.681243	1.20238	0	0
55.07	0.273419	1.36523	1.35366	0.642241	-0.184791	0.731963	1.09466	-0.0274044	-0.040933	1.45557	-0.0571956	0	0	1.08977	-0.305462	-0.260314	1.54927	-0.0835667	0	0	-0.690301	0.115404	-0.130527	0.557683	-0.2162	0.489537	0.343106	1.35819	0	0	0.220357	-0.392122	0.127327	0.6791	1.20522	0	0
55.08	0.272911	1.36401	1.3537	0.642255	-0.184414	0.731985	1.09501	-0.0266462	-0.0410884	1.45509	-0.0565911	0	0	1.09027	-0.305679	-0.260234	1.54887	-0.0832671	0	0	-0.688364	0.115042	-0.130999	0.556749	-0.214095	0.484717	0.341496	1.36692	0	0	0.220299	-0.391684	0.129094	0.675731	1.20636	0	0
55.09	0.271898	1.36187	1.35387	0.642277	-0.18397	0.732082	1.09583	-0.0253926	-0.0412342	1.45406	-0.0557524	0	0	1.09139	-0.306169	-0.260263	1.5481	-0.0829308	0	0	-0.685071	0.114447	-0.131225	0.555101	-0.211953	0.477577	0.34039	1.3723	0	0	0.219501	-0.390568	0.129291	0.672816	1.20918	0	0
55.1	0.269166	1.35901	1.35549	0.64231	-0.183463	0.732251	1.09783	-0.0245829	-0.0409368	1.45296	-0.0555965	0	0	1.09288	-0.306678	-0.26068	1.54692	-0.0821391	0	0	-0.680675	0.113415	-0.131162	0.552607	-0.210142	0.468879	0.340148	1.3753	0	0	0.218511	-0.389044	0.129155	0.670295	1.21406	0	0
55.11	0.276302	1.36163	1.34705	0.642345	-0.183195	0.732992	1.09263	-0.0224395	-0.0415076	1.45063	-0.0550979	0	0	1.08841	-0.307892	-0.260211	1.5458	-0.0808605	0	0	-0.680891	0.113533	-0.131307	0.552211	-0.207436	0.461387	0.33841	1.37829	0	0	0.218055	-0.387994	0.12918	0.668004	1.21813	0	0
55.12	0.286176	1.36544	1.33567	0.64246	-0.182868	0.733971	1.08579	-0.0200626	-0.0422871	1.44792	-0.0545089	0	0	1.08215	-0.309451	-0.259493	1.54434	-0.0798278	0	0	-0.682347	0.113571	-0.131248	0.552292	-0.20488	0.456833	0.336214	1.38182	0	0	0.216945	-0.387353	0.12926	0.667074	1.22037	0	0
55.13	0.294122	1.36893	1.32666	0.642458	-0.182533	0.735058	1.07948	-0.0190064	-0.0431365	1.44514	-0.0543142	0	0	1.076	-0.310359	-0.259554	1.54221	-0.0795167	0	0	-0.683377	0.113589	-0.131775	0.55249	-0.202987	0.453858	0.334355	1.38533	0	0	0.215237	-0.386711	0.129225	0.666808	1.22168	0	0
55.14	0.299249	1.37199	1.32084	0.642338	-0.18219	0.736233	1.07359	-0.0190774	-0.0439754	1.44195	-0.0547509	0	0	1.07001	-0.310626	-0.26067	1.53937	-0.0798746	0	0	-0.683768	0.113511	-0.132758	0.552683	-0.201662	0.451901	0.332526	1.38871	0	0	0.213425	-0.38586	0.129185	0.666587	1.22255	0	0
55.15	0.305446	1.37524	1.31396	0.642242	-0.181748	0.737521	1.06702	-0.0190765	-0.0451456	1.43839	-0.0554143	0	0	1.06334	-0.310929	-0.261582	1.53615	-0.0799299	0	0	-0.684354	0.113466	-0.133383	0.55273	-0.2006	0.449934	0.330711	1.39125	0	0	0.211969	-0.384807	0.129125	0.666197	1.22232	0	0
55.16	0.31313	1.37867	1.30538	0.64221	-0.181231	0.73891	1.05985	-0.0186304	-0.0463767	1.43455	-0.0561381	0	0	1.05614	-0.311348	-0.261887	1.53269	-0.0796326	0	0	-0.685189	0.113332	-0.133413	0.552581	-0.199617	0.447117	0.329271	1.39225	0	0	0.210855	-0.383805	0.129667	0.665411	1.22242	0	0
55.17	0.32914	1.38588	1.28854	0.642146	-0.180871	0.740678	1.04821	-0.0180108	-0.0480519	1.43038	-0.0572868	0	0	1.04466	-0.312231	-0.262318	1.52906	-0.0793239	0	0	-0.687871	0.115219	-0.137848	0.569182	-0.214036	0.605383	0.325706	1.22078	0	0	0.2088	-0.387715	0.141713	0.663085	1.20253	0	0
55.18	0.334368	1.38754	1.28222	0.642125	-0.18025	0.742113	1.04258	-0.0174339	-0.0489584	1.42589	-0.0597013	0	0	1.03889	-0.3126	-0.263112	1.52484	-0.0794971	0	0	-0.687529	0.113956	-0.132286	0.558135	-0.206447	0.514517	0.325985	1.31373	0	0	0.214744	-0.386053	0.153895	0.658028	1.19719	0	0
55.19	0.340934	1.38907	1.27463	0.642015	-0.1797	0.74353	1.03715	-0.016898	-0.0500707	1.42143	-0.0590973	0	0	1.03358	-0.312806	-0.263396	1.52104	-0.07973	0	0	-0.686912	0.114237	-0.133869	0.564679	-0.2125	0.582508	0.324903	1.24153	0	0	0.211542	-0.382302	0.142518	0.657785	1.20749	0	0
55.2	0.346169	1.39053	1.26819	0.641933	-0.17911	0.745066	1.03158	-0.0162311	-0.0508245	1.41641	-0.0604077	0	0	1.02788	-0.313083	-0.264327	1.51662	-0.0798591	0	0	-0.68652	0.113551	-0.130982	0.562619	-0.212275	0.572668	0.323795	1.25034	0	0	0.21483	-0.379655	0.146427	0.653084	1.20916	0	0
55.21	0.353509	1.39197	1.25934	0.641922	-0.178475	0.746651	1.02575	-0.0148421	-0.0516362	1.41117	-0.0618799	0	0	1.02197	-0.313817	-0.264734	1.51216	-0.0798345	0	0	-0.686267	0.112873	-0.127141	0.560393	-0.212294	0.563424	0.322321	1.25816	0	0	0.219159	-0.376978	0.151545	0.647314	1.20851	0	0
55.22	0.361086	1.39333	1.25043	0.641907	-0.177795	0.748254	1.0199	-0.0136128	-0.0526746	1.40607	-0.0634248	0	0	1.01607	-0.314614	-0.265289	1.50763	-0.0799625	0	0	-0.686079	0.112353	-0.123033	0.557949	-0.212413	0.553301	0.320896	1.26395	0	0	0.224109	-0.374433	0.15826	0.640861	1.20662	0	0
55.23	0.367006	1.39405	1.24343	0.641878	-0.177086	0.749839	1.01463	-0.0127851	-0.0538958	1.40088	-0.0650221	0	0	1.01084	-0.315192	-0.265948	1.5029	-0.080392	0	0	-0.685256	0.111839	-0.11884	0.554878	-0.212745	0.542988	0.320138	1.26881	0	0	0.229324	-0.372048	0.166266	0.634167	1.20439	0	0
